<svg width="904" height="612" viewBox="0 0 904 612" fill="none" xmlns="http://www.w3.org/2000/svg">
<path fill-rule="evenodd" clip-rule="evenodd" d="M338.943 388.938C381.355 389.475 479.429 389.55 532.781 388.938H572.942V187.841C581.71 185.815 586.646 184.752 591.333 176.895L582.334 176.22C577.846 169.964 578.053 169.689 570.789 171.117C568.288 165.788 569.132 166.497 564.184 164.207L561.487 172.958C551.955 177.459 544.793 173.372 542.368 164.436L548.679 160.285C542.149 157.469 541.951 158.807 537.818 153.338C545.104 146.839 561.888 149.53 568.6 146.169C570.665 132.217 545.443 135.107 538.818 126.237C536.14 130.558 537.125 134.084 536.313 139.548L519.853 137.564L517.074 143.327C509.879 142.79 508.224 141.818 505.222 135.407L510.474 132.354C508.447 122.248 503.804 123.544 503.914 112.168C513.585 117.558 517.785 135.132 530.945 133.17C533.86 120.548 529.738 125.321 536.199 113.889C539.24 108.507 538.913 100.226 533.297 96.4003C526.421 98.1969 529.886 98.2527 525.275 103.007C519.496 101.239 514.757 97.943 511.692 92.9942L521.023 90.4235C516.749 79.3612 504.132 90.3012 494.872 90.3372L499.965 84.3316C487.241 83.4315 378.151 82.0039 338.943 83.0427V187.841V388.938Z" fill="#063B88"/>
<path fill-rule="evenodd" clip-rule="evenodd" d="M441.812 256.35C431.77 261.475 422.949 266.557 415.199 271.697C381.959 293.742 368.489 316.801 363.554 348.445L363.276 350.294L363.284 353.144H520.341L520.346 350.294L520.068 348.458C514.537 313.1 498.245 291.474 468.423 271.697C460.674 266.557 451.852 261.475 441.812 256.35Z" fill="#DDAD67"/>
<path d="M365.259 318.469L365.263 201.667C365.263 150.378 434.069 115.931 441.817 112.214C449.563 115.931 518.373 150.378 518.373 201.667V318.496C513.744 307.511 507.463 297.973 499.459 289.305V203.278C499.459 162.71 442.802 131.708 442.642 131.622L441.817 131.163L440.991 131.622C440.83 131.708 384.179 162.71 384.186 203.278V289.3C376.16 297.982 369.879 307.521 365.259 318.469Z" fill="#DDAD67"/>
<path d="M413.498 265.313V210.37C413.498 190.539 440.905 175.551 440.983 175.507L441.816 175.039L442.65 175.507C442.726 175.551 470.131 190.539 470.131 210.37V265.315L471.903 266.48C475.904 269.122 479.8 271.916 483.586 274.856V207.465C483.586 180.129 447.727 158.285 441.815 154.868C435.9 158.285 400.045 180.127 400.045 207.465L400.043 274.856C403.828 271.915 407.724 269.12 411.724 266.478L413.498 265.313Z" fill="#DDAD67"/>
<path d="M403.365 316.385V310.534H397.649V316.385H403.365ZM480.902 303.758V300.995H479.255C477.54 300.995 475.781 302.003 475.781 304.46V305.204H475.012V307.969H481.475V305.204H478.549V304.46C478.549 304.242 478.683 303.976 478.901 303.848C479.035 303.801 479.123 303.758 479.255 303.758H480.902ZM481.518 341.649V310.534H475.057V341.649H481.518ZM471.505 341.649V320.475H458.976C457.824 320.468 456.686 320.724 455.648 321.224C454.665 321.571 453.777 322.142 453.053 322.891C452.309 323.718 451.687 324.648 451.207 325.651C450.851 326.649 450.672 327.702 450.68 328.762V335.203H440.108V310.534H433.643V341.649H446.174H471.505ZM464.867 327.098V335.203H457.141V328.763C457.141 328.369 457.186 328.065 457.318 327.845C457.802 327.361 458.242 327.098 458.978 327.098H464.867ZM429.611 316.387V310.534H423.896V316.385L429.611 316.387ZM430.14 341.649V320.641H423.499V335.203H412.872V320.477H400.353C399.258 320.484 398.18 320.74 397.2 321.224C396.222 321.581 395.336 322.151 394.606 322.891C393.862 323.718 393.24 324.648 392.76 325.651C392.403 326.649 392.224 327.702 392.231 328.762V341.649H419.16H430.14ZM411.143 316.385V310.532H405.429V316.383L411.143 316.385ZM406.408 327.096V335.201H398.692V328.762C398.692 328.018 398.865 327.579 399.604 327.271C399.832 327.147 400.09 327.086 400.351 327.096H406.408Z" fill="white"/>
<path fill-rule="evenodd" clip-rule="evenodd" d="M375.116 40.0064H345.392C344.912 40.0078 344.453 40.1985 344.114 40.5368C343.775 40.8752 343.584 41.3337 343.583 41.812V76.8749C343.583 77.8686 344.396 78.6787 345.39 78.6787H375.114C376.112 78.6787 376.925 77.8686 376.925 76.8749V41.812C376.925 40.82 376.112 40.0064 375.116 40.0064ZM416.857 40.0064H387.132C386.653 40.0078 386.193 40.1985 385.854 40.5368C385.516 40.8752 385.325 41.3337 385.324 41.812V76.8749C385.324 77.8686 386.134 78.6787 387.132 78.6787H416.857C417.853 78.6787 418.665 77.8686 418.665 76.8749V41.812C418.665 40.82 417.853 40.0064 416.857 40.0064ZM458.209 40.0064H428.485C428.005 40.0078 427.546 40.1985 427.207 40.5368C426.868 40.8752 426.677 41.3337 426.676 41.812V76.8749C426.676 77.8686 427.488 78.6787 428.485 78.6787H458.209C459.207 78.6787 460.019 77.8686 460.019 76.8749V41.812C460.019 40.82 459.207 40.0064 458.209 40.0064Z" fill="#063B88"/>
<path d="M449.945 62.9593L455.316 64.6047C454.491 67.6218 453.116 69.8577 451.198 71.3285C449.281 72.7867 446.85 73.5212 443.903 73.5212C440.252 73.5212 437.252 72.2754 434.901 69.7911C432.555 67.3014 431.376 63.9044 431.376 59.5839C431.376 55.0257 432.56 51.4774 434.919 48.9535C437.279 46.426 440.385 45.1641 444.235 45.1641C447.599 45.1641 450.328 46.1596 452.427 48.1416C453.679 49.3172 454.614 50.9986 455.239 53.2002L449.752 54.5018C449.427 53.0851 448.749 51.9635 447.72 51.1408C446.684 50.3181 445.431 49.9077 443.961 49.9077C441.921 49.9077 440.264 50.6368 438.998 52.0967C437.727 53.5513 437.094 55.9132 437.094 59.1752C437.094 62.6316 437.72 65.1033 438.965 66.5669C440.219 68.043 441.844 68.7757 443.843 68.7757C445.323 68.7757 446.594 68.3077 447.655 67.3716C448.716 66.4355 449.485 64.9665 449.947 62.961M399.212 73.0441V45.6447H404.774V73.0441H399.212ZM373.248 70.0323H367.257L364.885 63.7928H353.867L351.584 70.0323H345.701L356.367 42.6329H362.243L373.248 70.0323ZM363.08 59.1643L359.263 49.0256L355.556 59.1643H363.08ZM441.616 94.4037L437.068 102.913L427.61 97.9951L431.937 89.4207L441.616 94.4037ZM456.61 94.4037L452.062 102.913L442.602 97.9951L446.928 89.4207L456.61 94.4037Z" fill="white"/>
<path fill-rule="evenodd" clip-rule="evenodd" d="M660.777 145.836C666.083 143.573 666.48 148.079 672.743 151.953L682.361 149.838L679.978 138.19C688.13 137.009 703.2 139.297 708.344 133.751C691.406 132.197 694.353 130.44 680.807 125.798C671.651 128.908 662.647 135.54 660.776 145.836H660.777ZM588.773 123.18C582.099 119.198 582.673 117.704 580.015 111.979C573.124 114.148 561.857 118.269 560.373 125.697C566.52 131.164 568.538 128.226 574.523 126.024C583.364 129.466 585.873 129.394 583.788 138.46L576.53 137.697L576.069 151.136L587.45 156.743L592.153 151.159C603.359 150.878 622.217 143.893 625.036 132.368L604.525 133.16L607.192 127.441L601.612 123.135C606.804 116.93 614.366 107.712 609.602 100.209C599.58 100.717 595.689 117.851 588.773 123.18ZM647.184 186.719C647.393 183.61 643.15 182.758 640.631 183.268C633.305 184.89 637.124 171.125 632.925 164.686C626.817 155.319 627.332 152.916 619.634 147.856C617.148 146.223 617.086 152.943 617.086 152.943L619.331 184.053C619.331 184.053 615.023 187.867 606.951 185.205C606.951 185.205 603.07 186.901 604.464 189.867C605.861 192.831 606.709 197.13 611.502 195.556C616.297 193.983 618.36 190.651 625.278 192.226C632.197 193.799 647.186 186.719 647.186 186.719H647.184ZM595.649 47.8983L586.418 48.8435C582.863 64.4478 602.065 77.1898 615.853 66.0068C615.37 58.5593 613.332 61.5873 611.405 54.9139C625.096 53.7779 640.113 49.9326 648.348 37.5957C641.972 38.7281 640.996 40.6848 632.607 41.0737C626.274 41.3617 619.923 42.1754 613.675 41.4337L608.965 34.7207L602.011 36.2095C580.466 11.5303 590.758 20.8572 584.252 8.06304C579.881 18.7077 591.52 38.1987 595.649 47.8983ZM643.777 1.3122C643.777 1.3122 640.227 -1.34492 636.061 2.12771C636.061 2.12771 630.261 3.62728 628.483 5.67234C626.709 7.71379 624.318 11.1198 620.632 11.1198C616.945 11.1198 617.355 14.6591 617.355 14.6591C617.355 14.6591 618.378 21.0606 625.888 19.4944C633.399 17.9282 632.854 18.4053 633.331 14.9326C633.331 14.9326 642.275 22.2884 651.082 22.4253C651.082 22.4253 660.232 25.4208 659.207 20.9257C659.207 20.9257 641.524 7.51039 641.458 5.80738C641.389 4.10617 643.777 1.3122 643.777 1.3122ZM707.346 7.09997C707.346 7.09997 705.023 6.82806 704.341 8.73449C703.659 10.6427 700.928 10.6427 700.928 10.6427C700.928 10.6427 689.865 9.89565 686.587 13.028C686.587 13.028 681.058 12.209 679.829 13.6402C678.599 15.0695 679.691 18.4053 682.902 18.9507C686.111 19.4944 687.273 20.787 687.273 20.787C687.273 20.787 682.9 21.6745 683.037 22.4918C683.174 23.3091 684.404 30.0545 688.773 31.0069C693.142 31.961 695.533 32.4381 698.809 30.0528C702.087 27.6675 698.262 27.2624 699.082 23.8545C699.082 23.8545 702.771 24.2651 707.618 28.2148C712.464 32.1627 718.338 32.2994 718.338 32.2994C718.338 32.2994 724.005 34.6812 724.823 36.1141C725.644 37.5453 729.194 34.0726 729.194 34.0726C729.194 34.0726 714.788 16.7023 709.802 15.75C709.802 15.75 706.254 15.1379 707.004 12.686C707.753 10.2341 709.531 8.66616 707.346 7.09997ZM547.251 80.8389C541.804 85.0622 543.58 80.8748 542.548 86.9956C549.354 91.2693 548.051 91.028 553.306 95.3288L561.003 86.1062C562.557 97.9193 552.595 95.8545 551.057 105.761L557.896 104.582C555.802 111.326 555.495 107.307 554.806 114.688C562.698 114.553 560.076 114.685 563.664 106.933L572.205 108.071C574.016 93.9408 570.377 98.7132 578.324 87.6383C581.348 83.4239 583.166 69.078 582.586 64.347C577.703 67.9348 578.002 72.241 574.516 77.6092C568.325 77.5534 551.712 65.6053 536.172 65.0148C534.455 74.4372 540.918 75.539 547.251 80.8389ZM673.967 74.9323C662.517 88.1603 675.616 99.1398 691.144 89.055C699.67 83.5157 696.064 83.8433 707.602 79.665C713.751 77.4328 722.648 77.8775 726.389 72.8512C716.007 72.3814 705.877 77.8486 697.16 69.3228L689.017 69.7981C681.364 60.9914 680.689 53.4521 676.14 47.2917C662.64 48.8489 668.877 67.285 673.967 74.9323ZM623.063 82.1962C626.612 92.2324 632.751 83.7894 634.574 101.621L625.162 104.818C624.062 112.191 626.269 114.996 632.62 117.425C638.938 113.488 635.742 110.809 643.163 112.076C648.108 119.511 642.264 118.58 645.491 126.005C655.903 123.511 657.641 108.362 657.996 100.962C658.251 95.5952 660.593 99.7123 661.169 92.4952L651.508 92.8193C648.088 83.5607 649.388 84.2718 639.655 81.5679C634.787 80.2141 625.74 77.116 623.063 82.198" fill="#063B88"/>
<path d="M21.0374 487.5H34.2157V474.353H21.0374V487.5ZM57.9988 474.353H44.8205V518.44C44.8205 522.79 43.3334 526.446 40.2617 529.512C37.19 532.576 33.5227 534.057 29.1624 534.057C24.8021 534.057 21.1367 532.576 18.0632 529.51C14.9915 526.446 13.5044 522.79 13.5044 518.438V493.826L0.324219 488.092V518.442C0.324219 526.448 3.09993 533.17 8.74882 538.804C14.3977 544.439 21.2359 547.206 29.1624 547.206C37.0907 547.206 43.9289 544.439 49.5778 538.804C53.6385 534.752 56.2175 530.007 57.4051 524.768H62.1624V511.621H58.0006L57.9988 474.353ZM62.1624 524.766H76.3333V511.619H62.1624V524.766ZM76.3333 524.766H107.352V511.619H98.3333V474.355H85.1514V511.619H76.3333V524.766ZM92.7837 544.239H105.964V531.092H92.7837V544.239ZM77.5227 544.239H90.7028V531.092H77.5227V544.239ZM107.352 524.766H119.837V518.933C124.197 522.394 130.243 524.667 138.269 524.667L167.8 524.766V500.053C167.008 485.719 154.225 474.256 138.964 474.256C121.721 474.256 111.513 487.599 111.513 500.647C111.513 504.503 112.206 508.159 113.892 511.619H107.352V524.766ZM139.061 511.619C128.756 511.619 124.298 506.182 124.298 500.548C124.298 494.222 129.648 487.401 138.964 487.401C143.324 487.401 146.99 488.785 150.063 491.453C156.008 496.793 154.62 504.501 154.62 511.619H139.061ZM180.287 449.641H198.225V443.907H188.809C188.512 443.313 188.412 442.721 188.412 442.03C188.412 439.36 190.791 436.494 194.756 436.494C195.747 436.494 196.738 436.692 197.53 436.987V431.057C196.638 430.859 195.747 430.76 194.756 430.76C187.225 430.76 182.962 436.593 182.863 442.228C182.863 442.82 182.962 443.412 183.061 443.907H180.287V449.641ZM200.008 524.764V511.619H195.846V456.46H182.666V524.766L200.008 524.764ZM200.008 524.764H214.179V511.619H200.008V524.764ZM214.179 524.764H245.197V511.619H236.179V474.355H222.999V511.619H214.179V524.764ZM230.629 469.508H243.809V456.361H230.629V469.508ZM215.368 469.508H228.548V456.361H215.368V469.508ZM245.197 524.766H259.368V511.619H245.197V524.766ZM280.872 524.766V511.619H276.71V456.46H263.53V511.619H259.368V524.766H280.872ZM298.216 524.766V456.462H285.034V511.619H280.872V524.766H298.216ZM370.357 469.508H383.537V456.361H370.357V469.508ZM355.096 469.508H368.276V456.361H355.096V469.508ZM394.043 511.619H389.879V474.355H361.339C346.673 474.355 334.583 485.622 334.583 499.558C334.583 513.398 346.574 524.766 361.34 524.766H394.043V511.619ZM376.699 511.619H361.34C353.71 511.619 347.863 506.084 347.863 499.558C347.863 493.036 353.71 487.5 361.34 487.5H376.699V511.619ZM394.043 524.766H408.214V511.619H394.043V524.766ZM412.375 469.508H425.555V456.361H412.375V469.508ZM408.214 524.766H425.555V474.353H412.375V511.617H408.214V524.766ZM458.752 524.766V511.619H454.59V456.46H441.41V524.766H458.752ZM458.752 524.766H472.923V511.619H458.752V524.766ZM472.923 524.766H485.41V518.933C489.771 522.394 495.815 524.667 503.842 524.667L533.373 524.766V500.053C532.579 485.719 519.796 474.256 504.537 474.256C487.293 474.256 477.087 487.599 477.087 500.647C477.087 504.503 477.78 508.159 479.464 511.619H472.923V524.766ZM504.635 511.619C494.329 511.619 489.87 506.182 489.87 500.548C489.87 494.222 495.221 487.401 504.537 487.401C508.896 487.401 512.563 488.785 515.636 491.453C521.581 496.793 520.193 504.501 520.193 511.619H504.635ZM545.861 449.641H563.796V443.907H554.383C554.085 443.313 553.986 442.721 553.986 442.03C553.986 439.36 556.364 436.494 560.329 436.494C561.276 436.496 562.214 436.663 563.103 436.987V431.057C562.212 430.859 561.32 430.76 560.329 430.76C552.796 430.76 548.535 436.593 548.436 442.228C548.436 442.82 548.535 443.412 548.635 443.907H545.861V449.641ZM561.418 456.361H548.237V524.766H561.418V456.361ZM633.463 469.508H646.644V456.361H633.462L633.463 469.508ZM618.201 469.508H631.383V456.361H618.202L618.201 469.508ZM657.147 511.619H652.985V474.355H624.445C609.778 474.355 597.688 485.622 597.688 499.558C597.688 513.398 609.679 524.766 624.445 524.766H657.147V511.619ZM639.804 511.619H624.445C616.815 511.619 610.967 506.084 610.967 499.558C610.967 493.036 616.815 487.5 624.445 487.5H639.804V511.619ZM657.147 524.766H671.318V511.619H657.147V524.766ZM745.544 524.766C757.138 524.766 762.984 515.275 762.984 505.885C762.984 496.396 757.136 486.908 745.542 486.908H696.191L715.713 474.353L724.732 478.801V451.915L675.381 486.908V500.055H745.542C748.614 500.055 750.201 502.921 750.201 505.887C750.201 508.751 748.614 511.619 745.544 511.619H671.318V524.766H745.544ZM800.84 474.353H787.66V515.376C787.66 523.679 781.912 530.993 773.984 530.993V544.14C785.083 544.14 795.686 536.232 799.254 524.766H817.487V511.619H800.84V474.353ZM817.487 524.766H831.658V511.619H817.487V524.766ZM831.658 511.619V524.766H895.478C901.127 519.032 904 512.015 904 503.812V474.353H890.82V503.81C890.82 506.676 890.127 509.246 888.938 511.619H876.452C877.046 509.147 877.443 506.579 877.443 503.81V474.353H864.263V503.81C864.263 506.676 863.667 509.246 862.379 511.619H849.893C850.586 509.147 850.884 506.579 850.884 503.81V474.353H837.704V503.81C837.704 506.676 837.109 509.246 835.921 511.619H831.658ZM872.686 469.508H885.866V456.361H872.686V469.508ZM864.362 453H877.542V439.855H864.362V453ZM855.938 469.508H869.118V456.361H855.938V469.508ZM27.5616 607.222L25.8056 602.619H10.8532L9.09714 607.317C8.41133 609.153 7.8284 610.392 7.34111 611.033C6.86105 611.674 6.06515 611.998 4.95883 611.998C4.02578 611.998 3.19559 611.656 2.47729 610.972C1.75539 610.289 1.39805 609.513 1.39805 608.649C1.39805 608.145 1.48287 607.623 1.6453 607.094C1.81675 606.556 2.09108 605.821 2.47549 604.865L11.8801 581.048C12.1544 580.364 12.472 579.543 12.8474 578.587C13.2246 577.622 13.6271 576.827 14.0566 576.195C14.4843 575.563 15.0402 575.05 15.735 574.658C16.4281 574.265 17.2835 574.069 18.3032 574.069C19.35 574.069 20.2126 574.265 20.9075 574.658C21.6005 575.05 22.1582 575.554 22.5859 576.17C23.0136 576.785 23.3728 577.451 23.6651 578.161C23.9557 578.868 24.3329 579.817 24.7787 580.996L34.3872 604.669C35.1416 606.469 35.517 607.778 35.517 608.597C35.517 609.443 35.1669 610.23 34.4558 610.937C34.1215 611.28 33.7205 611.552 33.2773 611.734C32.834 611.917 32.3581 612.007 31.8786 612C31.2956 612 30.7903 611.895 30.3698 611.683C29.9601 611.477 29.6082 611.197 29.3176 610.837C29.0343 610.477 28.7347 609.922 28.4098 609.188C28.076 608.444 27.8016 607.787 27.5616 607.224V607.222ZM12.8131 597.032H23.8023L18.2617 581.911L12.8131 597.032ZM59.0961 605.848L53.1946 582.474V607.796C53.1946 609.197 52.8769 610.246 52.2525 610.946C51.628 611.648 50.796 611.998 49.7691 611.998C48.7675 611.998 47.9445 611.648 47.3111 610.955C46.6758 610.264 46.36 609.213 46.36 607.794V578.766C46.36 577.16 46.7804 576.083 47.6106 575.52C48.4498 574.965 49.5796 574.683 50.9927 574.683H53.3065C54.6925 574.683 55.696 574.811 56.3204 575.059C56.9448 575.306 57.4159 575.761 57.7155 576.409C58.0151 577.057 58.358 578.118 58.7442 579.587L64.0881 599.695L69.432 579.587C69.8182 578.118 70.1611 577.057 70.4607 576.409C70.7603 575.761 71.2223 575.306 71.8485 575.059C72.473 574.811 73.4836 574.683 74.8697 574.683H77.1744C78.5965 574.683 79.7263 574.965 80.5673 575.52C81.3975 576.083 81.8162 577.16 81.8162 578.766V607.796C81.8162 609.197 81.5004 610.246 80.8741 610.946C80.2497 611.648 79.4104 611.998 78.3655 611.998C77.3801 611.998 76.5661 611.648 75.9327 610.948C75.2992 610.246 74.9816 609.197 74.9816 607.796V582.474L69.08 605.848C68.6956 607.36 68.387 608.478 68.1397 609.188C67.8997 609.888 67.4539 610.538 66.8042 611.117C66.1437 611.708 65.2449 612 64.0881 612C63.2146 612 62.4782 611.811 61.879 611.434C61.299 611.08 60.8165 610.586 60.4749 609.999C60.1296 609.39 59.8645 608.738 59.6863 608.061C59.4877 607.351 59.2928 606.61 59.0961 605.848ZM118.711 607.222L116.957 602.619H102.002L100.246 607.317C99.5605 609.153 98.9794 610.392 98.4903 611.033C98.0121 611.674 97.2144 611.998 96.1099 611.998C95.1768 611.998 94.3466 611.656 93.6265 610.972C92.9064 610.289 92.5473 609.513 92.5473 608.649C92.5473 608.145 92.6321 607.623 92.7963 607.094C92.966 606.556 93.2403 605.821 93.6265 604.865L103.029 581.048C103.304 580.364 103.621 579.543 103.998 578.587C104.376 577.622 104.778 576.827 105.206 576.195C105.634 575.563 106.191 575.05 106.884 574.658C107.577 574.265 108.435 574.069 109.452 574.069C110.499 574.069 111.364 574.265 112.057 574.658C112.752 575.05 113.307 575.554 113.735 576.17C114.165 576.785 114.524 577.451 114.814 578.161C115.105 578.868 115.482 579.817 115.928 580.996L125.538 604.669C126.291 606.469 126.668 607.778 126.668 608.597C126.668 609.443 126.316 610.23 125.607 610.937C125.272 611.281 124.871 611.552 124.427 611.734C123.984 611.917 123.508 612.007 123.028 612C122.445 612 121.941 611.895 121.521 611.683C121.109 611.477 120.757 611.197 120.467 610.837C120.185 610.477 119.886 609.922 119.559 609.188C119.225 608.444 118.951 607.787 118.711 607.224V607.222ZM103.964 597.032H114.952L109.411 581.911L103.964 597.032ZM147.549 578.526L161.866 600.158V578.321C161.866 576.904 162.175 575.844 162.783 575.135C163.391 574.427 164.214 574.069 165.25 574.069C166.311 574.069 167.16 574.418 167.777 575.127C168.392 575.837 168.701 576.904 168.701 578.323V607.171C168.701 610.394 167.365 611.998 164.694 611.998C164.026 611.998 163.425 611.904 162.886 611.708C162.333 611.505 161.824 611.198 161.388 610.802C160.9 610.363 160.464 609.87 160.087 609.333C159.682 608.777 159.28 608.205 158.877 607.623L144.909 586.267V607.744C144.909 609.144 144.584 610.205 143.934 610.921C143.274 611.639 142.436 611.998 141.416 611.998C140.362 611.998 139.514 611.638 138.881 610.914C138.238 610.187 137.921 609.128 137.921 607.744V579.45C137.921 578.244 138.058 577.307 138.323 576.623C138.641 575.871 139.171 575.255 139.908 574.778C140.644 574.306 141.442 574.069 142.29 574.069C142.965 574.069 143.539 574.179 144.01 574.393C144.48 574.606 144.907 574.904 145.27 575.271C145.631 575.64 145.997 576.11 146.374 576.699C146.751 577.28 147.145 577.887 147.547 578.528L147.549 578.526ZM205.424 607.222L203.668 602.619H188.716L186.959 607.317C186.274 609.153 185.693 610.392 185.203 611.033C184.725 611.674 183.928 611.998 182.823 611.998C181.89 611.998 181.06 611.656 180.34 610.972C179.62 610.289 179.26 609.513 179.26 608.649C179.26 608.145 179.345 607.623 179.508 607.094C179.679 606.556 179.953 605.821 180.338 604.865L189.744 581.048C190.017 580.364 190.334 579.543 190.712 578.587C191.087 577.622 191.489 576.827 191.919 576.195C192.347 575.563 192.904 575.05 193.597 574.658C194.29 574.265 195.148 574.069 196.166 574.069C197.212 574.069 198.077 574.265 198.77 574.658C199.465 575.05 200.021 575.554 200.448 576.17C200.878 576.785 201.237 577.451 201.527 578.161C201.818 578.868 202.195 579.817 202.641 580.996L212.251 604.669C213.004 606.469 213.381 607.778 213.381 608.597C213.381 609.443 213.029 610.23 212.32 610.937C211.985 611.281 211.584 611.552 211.141 611.735C210.697 611.917 210.221 612.007 209.741 612C209.158 612 208.654 611.895 208.234 611.683C207.822 611.477 207.471 611.197 207.18 610.837C206.898 610.477 206.597 609.922 206.272 609.188C205.938 608.444 205.664 607.787 205.424 607.224V607.222ZM190.677 597.032H201.665L196.124 581.911L190.677 597.032ZM237.686 607.47V578.569C237.686 577.066 238.029 575.946 238.714 575.196C239.4 574.443 240.29 574.069 241.378 574.069C242.49 574.069 243.4 574.436 244.093 575.178C244.786 575.921 245.138 577.05 245.138 578.569V607.47C245.138 608.991 244.786 610.118 244.091 610.871C243.4 611.623 242.49 611.998 241.378 611.998C240.306 611.998 239.426 611.623 238.731 610.864C238.038 610.102 237.686 608.973 237.686 607.47ZM268.885 578.528L283.205 600.158V578.321C283.205 576.904 283.512 575.844 284.122 575.135C284.73 574.427 285.552 574.069 286.589 574.069C287.65 574.069 288.499 574.418 289.116 575.127C289.73 575.837 290.04 576.904 290.04 578.323V607.171C290.04 610.394 288.704 611.998 286.032 611.998C285.364 611.998 284.765 611.904 284.225 611.708C283.671 611.505 283.162 611.198 282.725 610.802C282.238 610.363 281.801 609.87 281.424 609.333C281.022 608.777 280.619 608.205 280.215 607.623L266.246 586.267V607.744C266.246 609.144 265.921 610.205 265.271 610.921C264.613 611.639 263.774 611.998 262.754 611.998C261.7 611.998 260.852 611.638 260.218 610.914C259.576 610.187 259.26 609.128 259.26 607.744V579.45C259.26 578.244 259.395 577.307 259.662 576.623C259.978 575.871 260.511 575.255 261.245 574.778C261.983 574.306 262.779 574.069 263.627 574.069C264.304 574.069 264.878 574.179 265.349 574.393C265.819 574.607 266.245 574.904 266.607 575.271C266.968 575.64 267.336 576.11 267.712 576.699C268.091 577.28 268.482 577.887 268.885 578.528ZM331.851 600.381C331.851 602.593 331.277 604.583 330.129 606.352C328.99 608.12 327.312 609.503 325.101 610.504C322.892 611.503 320.271 611.998 317.248 611.998C313.617 611.998 310.62 611.314 308.264 609.956C306.611 608.988 305.216 607.637 304.196 606.017C303.15 604.379 302.628 602.781 302.628 601.225C302.628 600.329 302.946 599.56 303.57 598.91C304.196 598.269 304.992 597.954 305.96 597.954C306.748 597.954 307.407 598.201 307.947 598.705C308.495 599.202 308.957 599.943 309.344 600.935C309.738 601.963 310.246 602.943 310.86 603.857C311.406 604.642 312.17 605.292 313.155 605.805C314.148 606.309 315.44 606.565 317.052 606.565C319.254 606.565 321.051 606.053 322.43 605.027C323.809 604.001 324.502 602.721 324.502 601.182C324.502 599.961 324.134 598.971 323.388 598.219C322.643 597.457 321.676 596.878 320.493 596.476C319.32 596.075 317.736 595.648 315.765 595.194C313.13 594.579 310.91 593.853 309.138 593.034C307.357 592.206 305.943 591.077 304.897 589.65C303.854 588.224 303.33 586.454 303.33 584.328C303.33 582.312 303.879 580.517 304.983 578.946C306.088 577.383 307.69 576.179 309.78 575.333C311.868 574.486 314.328 574.069 317.155 574.069C319.407 574.069 321.36 574.35 323.011 574.906C324.655 575.469 326.025 576.213 327.113 577.135C328.193 578.058 328.99 579.032 329.496 580.047C329.992 581.065 330.248 582.064 330.248 583.029C330.248 583.911 329.932 584.712 329.306 585.423C329.018 585.762 328.658 586.032 328.252 586.215C327.847 586.398 327.405 586.488 326.96 586.48C326.104 586.48 325.462 586.267 325.016 585.85C324.57 585.421 324.09 584.721 323.576 583.756C322.901 582.371 322.103 581.286 321.161 580.51C320.228 579.732 318.721 579.347 316.64 579.347C314.722 579.347 313.162 579.767 311.989 580.613C310.807 581.459 310.217 582.467 310.217 583.653C310.217 584.388 310.414 585.021 310.816 585.558C311.219 586.087 311.775 586.548 312.477 586.933C313.155 587.306 313.87 587.609 314.61 587.839C315.792 588.176 316.979 588.492 318.173 588.787C320.078 589.223 321.96 589.759 323.809 590.393C325.487 590.975 326.917 591.684 328.099 592.521C329.263 593.334 330.21 594.418 330.856 595.681C331.517 596.962 331.849 598.525 331.849 600.379L331.851 600.381ZM343.917 596.212V578.569C343.917 577.066 344.26 575.946 344.937 575.196C345.614 574.443 346.504 574.069 347.608 574.069C348.756 574.069 349.673 574.443 350.35 575.196C351.026 575.948 351.369 577.075 351.369 578.569V596.62C351.369 598.672 351.6 600.388 352.062 601.763C352.477 603.082 353.34 604.216 354.502 604.968C355.675 605.728 357.312 606.102 359.418 606.102C362.331 606.102 364.385 605.335 365.594 603.789C366.802 602.241 367.401 599.9 367.401 596.766V578.569C367.401 577.057 367.735 575.923 368.402 575.178C369.07 574.436 369.969 574.069 371.092 574.069C372.205 574.069 373.113 574.436 373.806 575.178C374.501 575.921 374.853 577.057 374.853 578.569V596.212C374.853 599.081 374.569 601.483 374.012 603.394C373.447 605.317 372.393 607 370.835 608.453C369.496 609.683 367.902 610.605 366.166 611.153C364.394 611.717 362.322 612 359.949 612C357.123 612 354.692 611.69 352.643 611.083C350.606 610.477 348.944 609.53 347.66 608.257C346.366 606.984 345.424 605.344 344.816 603.353C344.217 601.362 343.917 598.979 343.917 596.212ZM398.618 595.699H396.004V607.472C396.004 609.026 395.662 610.161 394.976 610.896C394.292 611.63 393.393 611.998 392.296 611.998C391.105 611.998 390.18 611.614 389.531 610.846C388.879 610.077 388.554 608.957 388.554 607.47V579.235C388.554 577.639 388.914 576.478 389.634 575.761C390.352 575.041 391.518 574.683 393.119 574.683H405.238C406.907 574.683 408.338 574.751 409.527 574.897C410.637 575.017 411.72 575.309 412.74 575.761C413.889 576.244 414.931 576.948 415.806 577.835C416.686 578.734 417.371 579.804 417.819 580.978C418.284 582.192 418.519 583.481 418.512 584.78C418.512 587.515 417.741 589.702 416.191 591.342C414.64 592.973 412.294 594.134 409.152 594.818C410.47 595.52 411.738 596.554 412.946 597.92C414.141 599.281 415.218 600.742 416.165 602.286C417.107 603.832 417.844 605.214 418.374 606.462C418.898 607.701 419.163 608.556 419.163 609.026C419.163 609.504 419.01 609.981 418.701 610.46C418.388 610.943 417.95 611.333 417.432 611.587C416.855 611.871 416.217 612.011 415.573 611.998C414.743 611.998 414.041 611.801 413.467 611.409C412.893 611.006 412.397 610.502 412.004 609.922C411.592 609.324 411.034 608.435 410.332 607.276L407.344 602.32C406.273 600.509 405.315 599.124 404.474 598.176C403.626 597.22 402.77 596.57 401.897 596.219C401.031 595.87 399.935 595.699 398.618 595.699ZM402.882 580.271H396.006V590.368H402.677C404.467 590.368 405.974 590.213 407.198 589.907C408.414 589.599 409.349 589.068 409.991 588.325C410.632 587.583 410.959 586.557 410.959 585.259C410.959 584.233 410.701 583.336 410.179 582.559C409.654 581.773 408.901 581.165 408.02 580.816C407.154 580.449 405.443 580.271 402.882 580.271ZM454.8 607.222L453.044 602.619H438.09L436.334 607.317C435.648 609.153 435.067 610.392 434.579 611.033C434.099 611.674 433.303 611.998 432.197 611.998C431.264 611.998 430.434 611.656 429.714 610.972C428.994 610.289 428.634 609.513 428.634 608.649C428.634 608.145 428.721 607.623 428.884 607.094C429.055 606.556 429.329 605.821 429.714 604.865L439.116 581.048C439.393 580.364 439.708 579.543 440.086 578.587C440.463 577.622 440.865 576.827 441.293 576.195C441.721 575.563 442.278 575.05 442.971 574.658C443.664 574.265 444.522 574.069 445.541 574.069C446.586 574.069 447.451 574.265 448.144 574.658C448.839 575.05 449.395 575.554 449.822 576.17C450.252 576.785 450.611 577.451 450.901 578.161C451.194 578.868 451.569 579.817 452.015 580.996L461.625 604.669C462.378 606.469 462.755 607.778 462.755 608.597C462.755 609.443 462.403 610.23 461.694 610.937C461.36 611.281 460.958 611.552 460.515 611.735C460.071 611.917 459.595 612.007 459.115 612C458.534 612 458.028 611.895 457.608 611.683C457.196 611.477 456.846 611.197 456.554 610.837C456.272 610.477 455.973 609.922 455.646 609.188C455.312 608.444 455.038 607.787 454.798 607.224L454.8 607.222ZM440.051 597.032H451.039L445.498 581.911L440.051 597.032ZM483.636 578.526L497.955 600.158V578.321C497.955 576.904 498.262 575.844 498.87 575.135C499.478 574.427 500.301 574.069 501.337 574.069C502.398 574.069 503.247 574.418 503.864 575.127C504.481 575.837 504.788 576.904 504.788 578.323V607.171C504.788 610.394 503.452 611.998 500.781 611.998C500.114 611.998 499.513 611.904 498.973 611.708C498.42 611.505 497.911 611.198 497.475 610.802C497.004 610.383 496.576 609.897 496.174 609.333C495.771 608.777 495.367 608.205 494.965 607.623L480.996 586.267V607.744C480.996 609.144 480.671 610.205 480.021 610.921C479.363 611.639 478.523 611.998 477.504 611.998C476.45 611.998 475.601 611.638 474.968 610.914C474.325 610.187 474.01 609.128 474.01 607.744V579.45C474.01 578.244 474.145 577.307 474.41 576.623C474.728 575.871 475.259 575.255 475.995 574.778C476.733 574.306 477.529 574.069 478.377 574.069C479.054 574.069 479.628 574.179 480.097 574.393C480.567 574.606 480.994 574.904 481.357 575.271C481.718 575.64 482.084 576.11 482.461 576.699C482.838 577.28 483.232 577.887 483.634 578.528L483.636 578.526ZM549.999 599.79C549.999 600.961 549.717 602.224 549.134 603.583C548.56 604.941 547.654 606.275 546.409 607.58C545.178 608.896 543.594 609.956 541.675 610.775C539.748 611.589 537.505 612 534.944 612C533.007 612 531.244 611.819 529.65 611.452C528.127 611.11 526.668 610.531 525.326 609.735C523.974 608.915 522.765 607.881 521.745 606.674C520.759 605.497 519.924 604.2 519.262 602.815C518.576 601.387 518.064 599.859 517.721 598.244C517.378 596.622 517.206 594.905 517.206 593.085C517.206 590.138 517.634 587.489 518.5 585.156C519.356 582.816 520.598 580.818 522.2 579.16C523.792 577.513 525.715 576.22 527.844 575.367C530.002 574.503 532.305 574.069 534.747 574.069C537.727 574.069 540.374 574.658 542.702 575.844C545.023 577.023 546.806 578.494 548.046 580.236C549.281 581.979 549.905 583.619 549.905 585.174C549.905 586.028 549.598 586.771 548.997 587.428C548.725 587.738 548.389 587.986 548.012 588.154C547.635 588.322 547.226 588.407 546.813 588.402C545.862 588.402 545.144 588.172 544.673 587.727C544.193 587.275 543.662 586.498 543.079 585.396C542.105 583.578 540.964 582.218 539.654 581.313C538.337 580.415 536.725 579.963 534.799 579.963C531.731 579.963 529.3 581.124 527.484 583.439C525.669 585.761 524.759 589.061 524.759 593.333C524.759 596.185 525.164 598.561 525.969 600.457C526.764 602.354 527.903 603.763 529.376 604.703C530.85 605.634 532.57 606.104 534.55 606.104C536.691 606.104 538.497 605.575 539.979 604.514C541.461 603.456 542.574 601.9 543.329 599.841C543.644 598.876 544.04 598.091 544.511 597.475C544.973 596.869 545.725 596.561 546.763 596.561C547.653 596.561 548.416 596.869 549.05 597.492C549.681 598.107 549.999 598.878 549.999 599.79ZM586.612 580.424H569.826V589.445H585.284C586.424 589.445 587.271 589.702 587.828 590.206C588.393 590.71 588.668 591.385 588.668 592.213C588.668 593.041 588.393 593.725 587.845 594.248C587.289 594.768 586.44 595.032 585.284 595.032H569.826V605.488H587.186C588.359 605.488 589.241 605.762 589.832 606.3C590.433 606.838 590.732 607.564 590.732 608.46C590.732 609.324 590.433 610.034 589.832 610.572C589.241 611.11 588.359 611.382 587.186 611.382H566.94C565.321 611.382 564.155 611.024 563.444 610.307C562.735 609.587 562.374 608.428 562.374 606.829V579.235C562.374 578.168 562.537 577.297 562.854 576.622C563.172 575.946 563.668 575.451 564.345 575.145C565.022 574.838 565.886 574.683 566.94 574.683H586.612C587.803 574.683 588.684 574.947 589.258 575.469C589.832 575.999 590.124 576.69 590.124 577.536C590.124 578.407 589.832 579.108 589.258 579.639C588.684 580.159 587.803 580.424 586.612 580.424ZM646.544 599.79C646.544 600.961 646.263 602.224 645.678 603.583C645.106 604.941 644.198 606.275 642.957 607.58C641.724 608.896 640.139 609.956 638.221 610.775C636.293 611.589 634.05 612 631.489 612C629.553 612 627.789 611.819 626.196 611.452C624.673 611.11 623.213 610.531 621.871 609.735C620.519 608.915 619.31 607.882 618.291 606.674C617.323 605.522 616.492 604.242 615.808 602.815C615.122 601.387 614.607 599.859 614.266 598.244C613.923 596.622 613.752 594.905 613.752 593.085C613.752 590.138 614.18 587.489 615.044 585.156C615.901 582.816 617.143 580.818 618.744 579.16C620.336 577.513 622.26 576.22 624.389 575.367C626.548 574.503 628.851 574.069 631.292 574.069C634.272 574.069 636.918 574.658 639.248 575.844C641.569 577.023 643.35 578.494 644.592 580.236C645.826 581.979 646.45 583.619 646.45 585.174C646.45 586.028 646.144 586.771 645.543 587.428C645.271 587.738 644.935 587.986 644.558 588.154C644.181 588.322 643.772 588.407 643.359 588.402C642.408 588.402 641.69 588.172 641.219 587.727C640.738 587.275 640.208 586.498 639.625 585.396C638.649 583.578 637.51 582.218 636.199 581.313C634.88 580.415 633.27 579.963 631.345 579.963C628.277 579.963 625.844 581.124 624.028 583.439C622.213 585.761 621.307 589.061 621.307 593.333C621.307 596.185 621.707 598.561 622.512 600.457C623.31 602.354 624.449 603.763 625.923 604.703C627.394 605.634 629.118 606.104 631.094 606.104C633.236 606.104 635.043 605.575 636.526 604.514C638.006 603.456 639.12 601.9 639.874 599.841C640.19 598.876 640.583 598.091 641.054 597.475C641.518 596.869 642.271 596.561 643.308 596.561C644.198 596.561 644.96 596.869 645.595 597.492C646.227 598.107 646.544 598.878 646.544 599.79ZM675.106 574.069C678.925 574.069 682.199 574.838 684.93 576.384C687.662 577.921 689.734 580.116 691.138 582.96C692.544 585.804 693.246 589.146 693.246 592.982C693.246 595.817 692.86 598.399 692.091 600.714C691.319 603.036 690.171 605.043 688.629 606.745C687.088 608.444 685.204 609.744 682.961 610.648C680.716 611.546 678.156 611.998 675.26 611.998C672.383 611.998 669.806 611.537 667.535 610.606C665.258 609.683 663.365 608.376 661.84 606.692C660.316 605.009 659.169 602.984 658.389 600.611C657.609 598.244 657.225 595.68 657.225 592.932C657.225 590.111 657.627 587.531 658.439 585.173C659.253 582.823 660.427 580.825 661.968 579.167C663.502 577.52 665.379 576.254 667.586 575.383C669.788 574.505 672.296 574.069 675.106 574.069ZM685.693 592.932C685.693 590.249 685.254 587.916 684.39 585.943C683.517 583.977 682.275 582.492 680.665 581.475C679.055 580.467 677.196 579.963 675.106 579.963C673.626 579.963 672.246 580.244 670.988 580.8C669.728 581.356 668.611 582.192 667.723 583.243C666.817 584.31 666.097 585.679 665.566 587.335C665.043 589 664.778 590.863 664.778 592.932C664.778 595.023 665.043 596.903 665.566 598.595C666.097 600.276 666.842 601.679 667.801 602.79C668.702 603.855 669.832 604.704 671.107 605.274C672.4 605.837 673.798 606.119 675.209 606.102C677.119 606.102 678.866 605.625 680.468 604.676C682.06 603.729 683.329 602.259 684.278 600.269C685.222 598.287 685.693 595.835 685.693 592.932ZM717.74 605.846L711.839 582.474V607.796C711.839 609.197 711.521 610.246 710.896 610.946C710.272 611.648 709.44 611.998 708.413 611.998C707.41 611.998 706.589 611.648 705.955 610.955C705.322 610.264 705.004 609.213 705.004 607.794V578.766C705.004 577.16 705.423 576.083 706.255 575.52C707.094 574.965 708.224 574.683 709.637 574.683H711.951C713.337 574.683 714.34 574.811 714.964 575.059C715.589 575.306 716.06 575.761 716.36 576.409C716.659 577.057 717.002 578.118 717.388 579.587L722.732 599.695L728.076 579.587C728.462 578.118 728.805 577.057 729.105 576.409C729.404 575.761 729.866 575.306 730.493 575.059C731.117 574.811 732.128 574.683 733.516 574.683H735.818C737.241 574.683 738.37 574.965 739.211 575.52C740.042 576.083 740.46 577.16 740.46 578.766V607.796C740.46 609.197 740.144 610.246 739.518 610.946C738.894 611.648 738.054 611.998 737.01 611.998C736.024 611.998 735.21 611.648 734.577 610.948C733.943 610.246 733.626 609.197 733.626 607.796V582.474L727.724 605.848C727.34 607.36 727.031 608.478 726.784 609.188C726.544 609.888 726.098 610.538 725.448 611.117C724.788 611.708 723.889 612 722.732 612C721.859 612 721.122 611.811 720.523 611.434C719.943 611.08 719.461 610.586 719.119 609.999C718.774 609.39 718.509 608.738 718.33 608.061C718.132 607.351 717.937 606.608 717.74 605.846ZM768.089 597.083H761.264V607.47C761.264 608.957 760.912 610.077 760.21 610.844C759.878 611.217 759.468 611.513 759.01 611.712C758.551 611.912 758.055 612.009 757.555 611.998C756.432 611.998 755.525 611.623 754.841 610.864C754.155 610.102 753.812 608.982 753.812 607.522V579.235C753.812 577.604 754.189 576.434 754.942 575.734C755.696 575.032 756.887 574.683 758.531 574.683H768.089C770.915 574.683 773.09 574.897 774.615 575.331C776.059 575.716 777.396 576.427 778.521 577.408C779.618 578.382 780.471 579.599 781.011 580.962C781.587 582.362 781.869 583.943 781.869 585.695C781.869 589.437 780.714 592.265 778.409 594.195C776.097 596.116 772.662 597.083 768.089 597.083ZM766.281 580.269H761.264V591.495H766.281C768.037 591.495 769.511 591.308 770.693 590.941C771.867 590.573 772.765 589.974 773.39 589.137C774.007 588.309 774.316 587.207 774.316 585.857C774.316 584.235 773.836 582.919 772.884 581.902C771.814 580.816 769.614 580.271 766.281 580.271V580.269ZM812.811 607.222L811.055 602.619H796.103L794.347 607.317C793.661 609.153 793.08 610.392 792.592 611.033C792.112 611.674 791.316 611.998 790.21 611.998C789.277 611.998 788.447 611.656 787.727 610.972C787.007 610.289 786.648 609.513 786.648 608.649C786.648 608.145 786.734 607.623 786.897 607.094C787.068 606.556 787.342 605.821 787.727 604.865L797.13 581.048C797.406 580.364 797.722 579.543 798.099 578.587C798.476 577.622 798.878 576.827 799.306 576.195C799.734 575.563 800.291 575.05 800.985 574.658C801.678 574.265 802.535 574.069 803.554 574.069C804.599 574.069 805.464 574.265 806.157 574.658C806.852 575.05 807.408 575.554 807.835 576.17C808.265 576.785 808.624 577.451 808.915 578.161C809.207 578.868 809.582 579.817 810.028 580.996L819.638 604.669C820.391 606.469 820.768 607.778 820.768 608.597C820.768 609.443 820.416 610.23 819.707 610.937C819.373 611.281 818.971 611.552 818.528 611.735C818.084 611.917 817.608 612.007 817.128 612C816.545 612 816.042 611.895 815.621 611.683C815.21 611.477 814.858 611.197 814.567 610.837C814.286 610.477 813.986 609.922 813.659 609.188C813.325 608.444 813.051 607.787 812.811 607.224V607.222ZM798.064 597.032H809.052L803.511 581.911L798.064 597.032ZM841.649 578.526L855.968 600.158V578.321C855.968 576.904 856.275 575.844 856.883 575.135C857.491 574.427 858.314 574.069 859.35 574.069C860.412 574.069 861.26 574.418 861.877 575.127C862.492 575.837 862.801 576.904 862.801 578.323V607.171C862.801 610.394 861.465 611.998 858.794 611.998C858.127 611.998 857.526 611.904 856.986 611.708C856.433 611.505 855.924 611.198 855.488 610.802C855.017 610.383 854.589 609.897 854.187 609.333C853.784 608.777 853.38 608.205 852.978 607.623L839.009 586.267V607.744C839.009 609.144 838.684 610.205 838.034 610.921C837.374 611.639 836.536 611.998 835.517 611.998C834.463 611.998 833.615 611.638 832.981 610.914C832.339 610.187 832.023 609.128 832.023 607.744V579.45C832.023 578.244 832.158 577.307 832.423 576.623C832.741 575.871 833.272 575.255 834.008 574.778C834.744 574.306 835.542 574.069 836.39 574.069C837.065 574.069 837.639 574.179 838.11 574.393C838.58 574.606 839.007 574.904 839.37 575.271C839.731 575.64 840.097 576.11 840.474 576.699C840.852 577.28 841.245 577.887 841.647 578.528L841.649 578.526ZM884.88 607.47V595.835L875.896 581.954C875.108 580.697 874.552 579.722 874.227 579.023C873.902 578.321 873.738 577.716 873.738 577.194C873.738 576.348 874.072 575.613 874.73 574.991C875.391 574.375 876.205 574.069 877.181 574.069C878.199 574.069 878.972 574.357 879.502 574.931C880.026 575.504 880.812 576.649 881.866 578.366L888.743 589.497L895.696 578.366C896.108 577.682 896.46 577.109 896.75 576.638C897.034 576.179 897.34 575.741 897.692 575.333C898.035 574.922 898.412 574.605 898.831 574.393C899.252 574.179 899.757 574.069 900.365 574.069C901.298 574.069 902.078 574.375 902.702 574.982C903.336 575.588 903.644 576.296 903.644 577.091C903.644 577.741 903.491 578.4 903.173 579.048C902.858 579.696 902.309 580.595 901.538 581.749L892.33 595.835V607.47C892.33 608.991 891.98 610.118 891.278 610.871C890.574 611.623 889.676 611.998 888.596 611.998C887.492 611.998 886.593 611.63 885.907 610.887C885.221 610.145 884.879 609.008 884.879 607.47" fill="#063B88"/>
</svg>
